<svg xmlns="http://www.w3.org/2000/svg" viewBox="0 0 880 289"><defs><style>.cls-1{fill:#fff;}</style></defs><title>logo-white</title><g id="Capa_2" data-name="Capa 2"><g id="Capa_1-2" data-name="Capa 1"><path class="cls-1" d="M61.64,58.7A178.44,178.44,0,0,1,89,56.77c17,0,28.13,3.13,36.72,9.58,9.32,6.92,15.17,17.81,15.17,33.59,0,17.1-6.22,28.93-14.83,36.16-9.43,7.82-23.88,11.55-41.36,11.55a171.08,171.08,0,0,1-23-1.31Zm20.24,72.83a45.76,45.76,0,0,0,7.08.35c18.36.16,30.43-9.94,30.43-31.28,0-18.54-10.86-28.29-28.3-28.29a44.19,44.19,0,0,0-9.21.77Z"/><path class="cls-1" d="M252.36,101.2c0,29.29-17.76,47-44,47-26.59,0-42.24-20-42.24-45.48C166.14,76,183.39,56,209.79,56c27.53,0,42.57,20.5,42.57,45.19m-64.78,1.12c0,17.49,8.27,29.82,21.8,29.82,13.71,0,21.54-12.9,21.54-30.25,0-16.09-7.64-29.83-21.59-29.83-13.73,0-21.75,12.9-21.75,30.26"/><path class="cls-1" d="M357.63,112.59c-.42-10.82-.82-23.69-.78-36.77h-.36c-2.86,11.42-6.63,24.11-10,34.64l-11,34.8H319.75l-9.66-34.49c-2.9-10.51-5.88-23.19-8.1-34.95h-.28c-.44,12.14-.94,25.92-1.48,37l-1.67,33.87H279.8l5.74-89.25h27l8.74,29.83c2.84,10.23,5.6,21.45,7.61,31.91h.43c2.45-10.33,5.49-22.1,8.53-32l9.52-29.69h26.52l4.82,89.25H359Z"/><rect class="cls-1" x="410.51" y="57.47" width="20.27" height="89.25"/><path class="cls-1" d="M540.32,112.59c-.42-10.82-.83-23.69-.78-36.77h-.37c-2.86,11.42-6.63,24.11-10,34.64l-11,34.8H502.43l-9.66-34.49c-2.89-10.51-5.87-23.19-8.09-34.95h-.28c-.45,12.14-.95,25.92-1.49,37l-1.67,33.87H462.48l5.74-89.25h27L504,87.3c2.83,10.23,5.6,21.45,7.6,31.91H512c2.46-10.33,5.49-22.1,8.53-32l9.53-29.69h26.52l4.81,89.25H541.71Z"/><path class="cls-1" d="M613.58,123.81l-6.33,22.91h-21l27.37-89.25h26.53l27.92,89.25H646.26l-6.89-22.91Zm22.78-15-5.58-19c-1.54-5.27-3.13-12-4.51-17.18H626c-1.32,5.25-2.67,12-4.11,17.21l-5.36,18.94Z"/><path class="cls-1" d="M696.18,146.72V57.47h23.63l18.61,32.74a256,256,0,0,1,14.66,30.61l.34,0a351,351,0,0,1-1.63-37.29v-26H770.4v89.25H749.16l-19.22-34.37a326.35,326.35,0,0,1-15.58-31.53l-.45,0c.63,11.83.89,24.46.89,39v26.82Z"/><path class="cls-1" d="M160.81,207.36a10.72,10.72,0,1,0,0,21.44,12.87,12.87,0,0,0,8.76-3.78l3.65,4.06a18.4,18.4,0,0,1-12.73,5.54c-9.5,0-16.84-7.15-16.84-16.47s7.43-16.28,17.07-16.28A17.93,17.93,0,0,1,173.17,207l-3.6,4.52a12.11,12.11,0,0,0-8.76-4.19"/><path class="cls-1" d="M199.23,229.08c4.89,0,8-3,8-8.21V202.05h6.18v18.82c0,8.49-5.39,13.75-14.16,13.75s-14.34-5.26-14.34-13.75V202.05h6.18v18.82c0,5.12,3.27,8.21,8.16,8.21"/><polygon class="cls-1" points="251.58 202.05 251.58 207.45 234.1 207.45 234.1 215.43 249.78 215.43 249.78 220.82 234.1 220.82 234.1 228.94 252.14 228.94 252.14 234.34 227.92 234.34 227.92 202.05 251.58 202.05"/><path class="cls-1" d="M285.85,234.34l-5.58-9.55a8.55,8.55,0,0,1-1.15.05h-7.29v9.5h-6.18V202.05h13.47c8.35,0,13.1,4,13.1,11.12,0,5.07-2.26,8.72-6.41,10.47l7.1,10.7Zm-14-14.94h7.29c4.61,0,7.19-2,7.19-6.05s-2.58-5.9-7.19-5.9h-7.29Z"/><path class="cls-1" d="M338.11,218.2c0,9.27-7.47,16.42-17.2,16.42s-17.21-7.15-17.21-16.42,7.47-16.33,17.21-16.33,17.2,7,17.2,16.33m-28.09,0a11,11,0,0,0,11,10.88,10.84,10.84,0,1,0-11-10.88"/><path class="cls-1" d="M392.91,227.51H377.13l-2.86,6.83h-6.41L382,202.05h6.41l14,32.29h-6.64Zm-2.22-5.3-5.63-13.56-5.72,13.56Z"/><polygon class="cls-1" points="457.39 202.05 457.39 207.54 447.33 207.54 447.33 234.34 441.1 234.34 441.1 207.54 431.05 207.54 431.05 202.05 457.39 202.05"/><path class="cls-1" d="M482.71,229.08c4.89,0,8-3,8-8.21V202.05h6.18v18.82c0,8.49-5.4,13.75-14.16,13.75s-14.35-5.26-14.35-13.75V202.05h6.18v18.82c0,5.12,3.28,8.21,8.17,8.21"/><path class="cls-1" d="M522,207.4c-2.91,0-4.8,1.06-4.8,3,0,6.55,17.34,3,17.3,14.57,0,6-5.26,9.55-12.37,9.55a20.93,20.93,0,0,1-13.65-5.17l2.58-5.21c3.32,2.95,7.71,4.75,11.17,4.75s5.53-1.29,5.53-3.55c0-6.73-17.34-2.9-17.34-14.39,0-5.63,4.84-9.23,12.08-9.23a22,22,0,0,1,11.67,3.42l-2.49,5.35A20.61,20.61,0,0,0,522,207.4"/><path class="cls-1" d="M594.7,213.17c0,7.38-4.66,11.67-12.78,11.67h-7.06v9.5h-6.18V202.05h13.24c8.12,0,12.78,4,12.78,11.12m-5.86.18c0-4-2.63-5.9-7.24-5.9h-6.74v12h6.74c4.61,0,7.24-2,7.24-6.05"/><rect class="cls-1" x="607.06" y="202.05" width="6.18" height="32.29"/><polygon class="cls-1" points="652.08 202.05 652.08 207.45 634.59 207.45 634.59 215.43 650.28 215.43 650.28 220.82 634.59 220.82 634.59 228.94 652.63 228.94 652.63 234.34 628.41 234.34 628.41 202.05 652.08 202.05"/><path class="cls-1" d="M676.75,207.4c-2.91,0-4.8,1.06-4.8,3,0,6.55,17.35,3,17.3,14.57,0,6-5.26,9.55-12.36,9.55a20.93,20.93,0,0,1-13.66-5.17l2.59-5.21c3.32,2.95,7.7,4.75,11.16,4.75s5.54-1.29,5.54-3.55c0-6.73-17.35-2.9-17.35-14.39,0-5.63,4.85-9.23,12.09-9.23a22,22,0,0,1,11.67,3.42l-2.49,5.35a20.64,20.64,0,0,0-9.69-3.14"/><rect class="cls-1" width="880" height="289"/></g></g></svg>