<?xml version="1.0" encoding="UTF-8"?><svg width="17px" height="27px" viewBox="0 0 17 27" version="1.1" xmlns="http://www.w3.org/2000/svg" xmlns:xlink="http://www.w3.org/1999/xlink"> <title>icon/sizeguide/shoes</title> <desc>Created with Sketch.</desc> <g id="CASOS-BUY-SECTION---1280px-" stroke="none" stroke-width="1" fill="none" fill-rule="evenodd"> <g id="PDP-Availability-Initial-variations-selectsize" transform="translate(-840.000000, -298.000000)"> <g id="PROD" transform="translate(80.000000, 26.000000)"> <g id="Group-5" transform="translate(592.000000, 272.000000)"> <g id="Guia-de-tallas" transform="translate(168.000000, 0.000000)"> <g id="icon/sizeguide/shoes"> <g id="Talla-zapatos-calzado_Mesa-de-trabajo-1"> <g id="Group" transform="translate(12.725898, 1.196203)" stroke="#8FCA00" stroke-width="0.8424"> <polyline id="Shape" points="0.141398866 0.0341772152 3.53497164 0.0341772152 3.53497164 24.693038 0.141398866 24.693038"></polyline> <line x1="3.39357278" y1="3.34936709" x2="2.05028355" y2="3.34936709" id="Shape" stroke-linecap="square"></line> <line x1="3.39357278" y1="6.86962025" x2="2.05028355" y2="6.86962025" id="Shape" stroke-linecap="square"></line> <line x1="3.39357278" y1="10.3898734" x2="2.05028355" y2="10.3898734" id="Shape" stroke-linecap="square"></line> <line x1="3.39357278" y1="13.9101266" x2="2.05028355" y2="13.9101266" id="Shape" stroke-linecap="square"></line> <line x1="3.39357278" y1="17.4303797" x2="2.05028355" y2="17.4303797" id="Shape" stroke-linecap="square"></line> <line x1="3.39357278" y1="20.9506329" x2="2.05028355" y2="20.9506329" id="Shape" stroke-linecap="square"></line> </g> <g id="Group-12" fill="#070308" fill-rule="nonzero"> <path d="M1.78418054,4.7164557 C1.78418054,4.7164557 1.80185539,4.7164557 1.80185539,4.7164557 C4.0819121,4.51139241 3.88748866,0.119620253 1.76650568,0 C1.66045653,0 1.57208224,0 1.48370795,0 C-0.884723056,0.222151899 -0.142379011,4.87025316 1.78418054,4.7164557 Z M1.53673252,0.42721519 C1.60743195,0.42721519 1.67813139,0.42721519 1.74883082,0.42721519 C2.54419944,0.461392405 2.98607089,1.43544304 3.00374575,2.35822785 C3.02142061,3.26392405 2.65024859,4.22088608 1.74883082,4.28924051 C1.05951135,4.34050633 0.529265601,3.33227848 0.44089131,2.37531646 C0.370191877,1.52088608 0.617639893,0.512658228 1.53673252,0.42721519 Z" id="Shape"></path> <path d="M5.00198488,4.35759494 C5.01965974,4.35759494 5.05500945,4.35759494 5.07268431,4.35759494 C6.36294896,4.23797468 6.57504726,1.65759494 5.35548204,1.36708861 C5.21408318,1.33291139 5.07268431,1.31582278 4.9489603,1.33291139 C3.51729679,1.45253165 3.65869565,4.39177215 5.00198488,4.35759494 Z M4.98431002,1.76012658 C5.05500945,1.76012658 5.14338374,1.76012658 5.24943289,1.77721519 C5.60293006,1.86265823 5.76200378,2.39240506 5.72665406,2.87088608 C5.69130435,3.3664557 5.44385633,3.89620253 5.03733459,3.93037975 C5.01965974,3.93037975 5.01965974,3.93037975 5.00198488,3.93037975 C4.64848771,3.93037975 4.41871456,3.41772152 4.38336484,2.9221519 C4.34801512,2.4778481 4.48941399,1.7943038 4.98431002,1.76012658 Z" id="Shape"></path> <path d="M7.12296786,5.33164557 C7.15831758,5.33164557 7.1936673,5.33164557 7.21134216,5.33164557 C8.36020794,5.22911392 8.62533081,3.11012658 7.5294896,2.63164557 C7.4057656,2.61455696 7.28204159,2.59746835 7.17599244,2.61455696 C5.83270321,2.73417722 5.86805293,5.33164557 7.12296786,5.33164557 Z M6.61039698,4.08417722 C6.59272212,3.67405063 6.75179584,3.05886076 7.22901701,3.02468354 C7.28204159,3.02468354 7.33506616,3.02468354 7.4057656,3.02468354 C7.7415879,3.21265823 7.84763705,3.72531646 7.77693762,4.13544304 C7.72391304,4.46012658 7.5294896,4.85316456 7.17599244,4.88734177 C7.15831758,4.88734177 7.14064272,4.88734177 7.12296786,4.88734177 C6.75179584,4.90443038 6.62807183,4.37468354 6.61039698,4.08417722 Z" id="Shape"></path> <path d="M8.90812854,6.56202532 C8.96115312,6.56202532 8.99650284,6.56202532 9.04952741,6.56202532 C10.0393195,6.47658228 10.5342155,4.51139241 9.52674858,4.11835443 C9.35,4.05 9.19092628,4.03291139 9.04952741,4.05 C7.91833648,4.15253165 7.82996219,6.45949367 8.90812854,6.56202532 Z M8.5899811,5.4 C8.5899811,4.97278481 8.78440454,4.4943038 9.10255198,4.47721519 C9.17325142,4.47721519 9.27930057,4.4943038 9.36767486,4.52848101 C9.70349716,4.66518987 9.65047259,5.1778481 9.63279773,5.28037975 C9.5620983,5.74177215 9.29697543,6.11772152 9.01417769,6.15189873 C8.99650284,6.15189873 8.97882798,6.15189873 8.96115312,6.15189873 C8.7137051,6.11772152 8.5899811,5.74177215 8.5899811,5.4 Z" id="Shape"></path> <path d="M10.9584121,6.01518987 C10.7816635,5.92974684 10.6402647,5.91265823 10.4988658,5.91265823 C9.57977316,5.99810127 9.31465028,7.84367089 10.1630435,8.04873418 C10.2514178,8.06582278 10.3397921,8.08291139 10.4104915,8.06582278 C11.2942344,7.99746835 11.8598299,6.44240506 10.9584121,6.01518987 Z M10.9584121,6.93797468 C10.8877127,7.29683544 10.6225898,7.62151899 10.3751418,7.63860759 C10.3397921,7.63860759 10.3044423,7.63860759 10.2690926,7.63860759 C10.1453686,7.60443038 10.0746692,7.36518987 10.092344,7.09177215 C10.1276938,6.69873418 10.3221172,6.35696203 10.5342155,6.33987342 C10.6049149,6.33987342 10.6756144,6.35696203 10.7639887,6.39113924 C10.9937618,6.51075949 10.9937618,6.78417722 10.9584121,6.93797468 Z" id="Shape"></path> </g> <path d="M7.37041588,6.51075949 C6.82249527,6.13481013 6.20387524,5.8443038 5.56758034,5.6221519 C4.77221172,5.34873418 3.74706994,5.10949367 2.81030246,5.1778481 C2.12098299,5.24620253 1.48468809,5.46835443 1.02514178,5.99810127 C0.247448015,6.86962025 0.141398866,8.20253165 0.19442344,9.31329114 C0.212098299,9.70632911 0.247448015,10.0822785 0.318147448,10.4582278 C0.388846881,10.8341772 0.477221172,11.193038 0.60094518,11.5518987 C1.00746692,12.7310127 1.87353497,13.7221519 2.31540643,14.9012658 C2.368431,15.0550633 2.42145558,15.2088608 2.45680529,15.3797468 C2.89867675,17.1911392 2.91635161,18.4556962 2.29773157,20.1816456 C2.10330813,20.7113924 1.89120983,21.2411392 1.74981096,21.7879747 C1.6084121,22.3348101 1.64376181,22.5911392 1.62608696,23.1379747 C1.62608696,23.2063291 1.62608696,23.2746835 1.62608696,23.343038 C1.80283554,25.4278481 3.58799622,27.0683544 5.40850662,26.8974684 C6.08015123,26.8462025 6.7694707,26.5386076 7.37041588,25.9063291 C8.43090737,24.8126582 8.44858223,23.1208861 8.3778828,20.8651899 C8.32485822,18.9512658 7.7415879,17.1398734 8.53695652,15.3113924 C8.97882798,14.2860759 9.47372401,13.2949367 9.79187146,12.2183544 C10.1453686,11.0221519 10.2160681,9.68924051 9.45604915,8.61265823 C9.03185255,8.04873418 8.25415879,7.10886076 7.37041588,6.51075949 Z M9.35,12.0987342 C9.10255198,12.9189873 8.74905482,13.7221519 8.39555766,14.4911392 C8.30718336,14.6962025 8.20113422,14.9183544 8.11275992,15.1234177 C7.47646503,16.5588608 7.63553875,17.9772152 7.77693762,19.3443038 C7.82996219,19.8398734 7.88298677,20.3525316 7.90066163,20.8651899 C7.97136106,23.0183544 7.9536862,24.6075949 7.01691871,25.5816456 C6.52202268,26.0943038 5.97410208,26.3677215 5.35548204,26.4360759 C4.68383743,26.4873418 3.99451796,26.2651899 3.39357278,25.7867089 C2.65122873,25.171519 2.1563327,24.2658228 2.08563327,23.3088608 C2.08563327,23.2746835 2.08563327,23.2575949 2.08563327,23.2234177 C2.08563327,23.1892405 2.08563327,23.1721519 2.08563327,23.1379747 L2.08563327,22.8987342 C2.08563327,22.5056962 2.08563327,22.3006329 2.19168242,21.9075949 C2.29773157,21.5316456 2.42145558,21.1727848 2.56285444,20.7968354 C2.61587902,20.643038 2.66890359,20.4892405 2.73960302,20.335443 C3.35822306,18.6094937 3.39357278,17.2765823 2.89867675,15.2772152 C2.86332703,15.1063291 2.81030246,14.935443 2.73960302,14.7474684 C2.50982987,14.1322785 2.19168242,13.585443 1.87353497,13.0556962 C1.53771267,12.5088608 1.23724008,11.9791139 1.04281664,11.4151899 C0.936767486,11.1075949 0.848393195,10.7658228 0.777693762,10.3898734 C0.706994329,10.0310127 0.671644612,9.65506329 0.653969754,9.29620253 C0.583270321,7.91202532 0.830718336,6.90379747 1.36096408,6.3056962 C1.71446125,5.91265823 2.19168242,5.69050633 2.84565217,5.63924051 C3.74706994,5.55379747 4.71918715,5.82721519 5.39083176,6.04936709 C6.0094518,6.25443038 6.57504726,6.54493671 7.08761815,6.88670886 C8.00671078,7.50189873 8.76672968,8.49303797 9.06720227,8.88607595 C9.65047259,9.68924051 9.73884688,10.7658228 9.35,12.0987342 Z" id="Shape" fill="#070308" fill-rule="nonzero"></path> </g> </g> </g> </g> </g> </g> </g></svg>