<svg xmlns="http://www.w3.org/2000/svg" viewBox="0 0 708.76 178.6"><defs><style>.cls-1{fill:red;}</style></defs><title>Recurso 1</title><g id="Capa_2" data-name="Capa 2"><g id="Capa_1-2" data-name="Capa 1"><path class="cls-1" d="M0,2.68A180,180,0,0,1,27.34.76c17,0,28.13,3.12,36.72,9.58,9.31,6.92,15.16,17.81,15.16,33.58C79.22,61,73,72.86,64.39,80.08,55,87.91,40.51,91.64,23,91.64A170.68,170.68,0,0,1,0,90.32ZM20.25,75.52a45.69,45.69,0,0,0,7.07.35c18.36.15,30.44-9.94,30.44-31.28,0-18.55-10.87-28.3-28.3-28.3a44.75,44.75,0,0,0-9.21.77Z"/><path d="M190.72,45.19c0,29.28-17.76,47-44,47-26.59,0-42.23-20-42.23-45.48C104.51,20,121.75,0,148.16,0c27.52,0,42.56,20.5,42.56,45.19m-64.78,1.12c0,17.48,8.28,29.81,21.81,29.81,13.7,0,21.54-12.89,21.54-30.25,0-16.08-7.64-29.82-21.59-29.82-13.74,0-21.76,12.9-21.76,30.26"/><path d="M296,56.57c-.42-10.81-.83-23.68-.78-36.77h-.37c-2.86,11.43-6.63,24.11-10,34.65l-11,34.8H258.11l-9.66-34.49c-2.89-10.51-5.87-23.19-8.09-35h-.29c-.44,12.14-.94,25.92-1.48,37l-1.67,33.87H218.16L223.9,1.46h27l8.75,29.83c2.83,10.23,5.6,21.45,7.6,31.91h.43c2.45-10.33,5.49-22.11,8.53-32.05l9.52-29.69h26.53l4.81,89.25H297.39Z"/><rect x="348.88" y="1.46" width="20.27" height="89.25"/><path class="cls-1" d="M478.68,56.57c-.42-10.81-.83-23.68-.78-36.77h-.36c-2.86,11.43-6.63,24.11-10,34.65l-11,34.8H440.8l-9.67-34.49c-2.89-10.51-5.87-23.19-8.09-35h-.28c-.44,12.14-.94,25.92-1.48,37L419.6,90.71H400.85l5.74-89.25h27l8.75,29.83C445.2,41.52,448,52.74,450,63.2h.44c2.45-10.33,5.48-22.11,8.53-32.05l9.52-29.69H495l4.82,89.25H480.08Z"/><path d="M551.94,67.79l-6.32,22.92h-21L552,1.46h26.53l27.92,89.25H584.63l-6.9-22.92Zm22.79-15-5.59-19c-1.54-5.28-3.13-12-4.51-17.19h-.28c-1.31,5.25-2.66,12-4.1,17.21l-5.37,18.95Z"/><path d="M634.55,90.71V1.46h23.62L676.79,34.2a255.2,255.2,0,0,1,14.65,30.61l.34,0a353.66,353.66,0,0,1-1.63-37.29v-26h18.61V90.71H687.52L668.3,56.34a326.35,326.35,0,0,1-15.58-31.53l-.44,0c.62,11.83.88,24.46.88,39V90.71Z"/><path d="M99.17,151.34a10.73,10.73,0,1,0,0,21.45,13,13,0,0,0,8.77-3.78l3.64,4.06a18.39,18.39,0,0,1-12.73,5.53c-9.5,0-16.83-7.15-16.83-16.46s7.42-16.29,17.06-16.29A18,18,0,0,1,111.54,151l-3.6,4.52a12.14,12.14,0,0,0-8.77-4.2"/><path d="M137.6,173.07c4.88,0,8-3,8-8.21V146h6.18v18.82c0,8.48-5.4,13.74-14.16,13.74s-14.35-5.26-14.35-13.74V146h6.18v18.82c0,5.12,3.28,8.21,8.17,8.21"/><polygon points="189.95 146.04 189.95 151.43 172.47 151.43 172.47 159.41 188.15 159.41 188.15 164.81 172.47 164.81 172.47 172.93 190.5 172.93 190.5 178.33 166.28 178.33 166.28 146.04 189.95 146.04"/><path d="M224.22,178.33l-5.59-9.55a10.49,10.49,0,0,1-1.15,0h-7.29v9.51H204V146h13.47c8.35,0,13.1,4,13.1,11.11,0,5.08-2.26,8.72-6.41,10.48l7.1,10.7Zm-14-15h7.29c4.61,0,7.2-2,7.2-6s-2.59-5.91-7.2-5.91h-7.29Z"/><path d="M276.48,162.18c0,9.27-7.48,16.42-17.21,16.42s-17.2-7.15-17.2-16.42,7.47-16.33,17.2-16.33,17.21,7.06,17.21,16.33m-28.1,0a11,11,0,0,0,11,10.89,10.84,10.84,0,1,0-11-10.89"/><path d="M331.27,171.5H315.49l-2.86,6.83h-6.41L320.38,146h6.42l14,32.29h-6.64Zm-2.21-5.31-5.63-13.56-5.72,13.56Z"/><polygon points="395.75 146.04 395.75 151.53 385.69 151.53 385.69 178.33 379.47 178.33 379.47 151.53 369.41 151.53 369.41 146.04 395.75 146.04"/><path d="M421.07,173.07c4.89,0,8-3,8-8.21V146h6.18v18.82c0,8.48-5.39,13.74-14.16,13.74s-14.34-5.26-14.34-13.74V146h6.18v18.82c0,5.12,3.27,8.21,8.16,8.21"/><path d="M460.37,151.39c-2.91,0-4.8,1.06-4.8,3,0,6.55,17.35,3,17.3,14.58,0,6-5.26,9.55-12.36,9.55a21,21,0,0,1-13.66-5.17l2.59-5.21c3.32,2.95,7.7,4.75,11.16,4.75s5.53-1.29,5.53-3.55c0-6.74-17.34-2.91-17.34-14.39,0-5.63,4.84-9.23,12.09-9.23a22.05,22.05,0,0,1,11.67,3.41l-2.49,5.36a20.64,20.64,0,0,0-9.69-3.14"/><path d="M533.06,157.15c0,7.38-4.66,11.67-12.78,11.67h-7v9.51H507V146h13.24c8.12,0,12.78,4,12.78,11.11m-5.86.19c0-4-2.63-5.91-7.24-5.91h-6.73v11.95H520c4.61,0,7.24-2,7.24-6"/><rect x="545.42" y="146.04" width="6.18" height="32.29"/><polygon points="590.44 146.04 590.44 151.43 572.96 151.43 572.96 159.41 588.64 159.41 588.64 164.81 572.96 164.81 572.96 172.93 590.99 172.93 590.99 178.33 566.77 178.33 566.77 146.04 590.44 146.04"/><path d="M615.11,151.39c-2.9,0-4.79,1.06-4.79,3,0,6.55,17.34,3,17.29,14.58,0,6-5.25,9.55-12.36,9.55a21,21,0,0,1-13.65-5.17l2.58-5.21c3.32,2.95,7.7,4.75,11.16,4.75s5.54-1.29,5.54-3.55c0-6.74-17.34-2.91-17.34-14.39,0-5.63,4.84-9.23,12.08-9.23a22.05,22.05,0,0,1,11.67,3.41l-2.49,5.36a20.64,20.64,0,0,0-9.69-3.14"/></g></g></svg>